<svg width="59" height="11" viewBox="0 0 59 11" fill="none" xmlns="http://www.w3.org/2000/svg">
<path d="M0.355114 1.99503V0.727273H6.32812V1.99503H4.10156V8H2.58168V1.99503H0.355114ZM10.0391 5.67756V2.54545H11.5518V8H10.0994V7.00923H10.0426C9.91951 7.32884 9.71473 7.5857 9.42827 7.77983C9.14418 7.97396 8.79735 8.07102 8.38778 8.07102C8.0232 8.07102 7.70241 7.98816 7.42543 7.82244C7.14844 7.65672 6.93182 7.42116 6.77557 7.11577C6.62169 6.81037 6.54356 6.4446 6.54119 6.01847V2.54545H8.05398V5.74858C8.05634 6.07055 8.14276 6.32505 8.31321 6.51207C8.48366 6.6991 8.71212 6.79261 8.99858 6.79261C9.18087 6.79261 9.35133 6.75118 9.50994 6.66832C9.66856 6.5831 9.7964 6.45762 9.89347 6.2919C9.9929 6.12618 10.0414 5.9214 10.0391 5.67756ZM12.7619 8V2.54545H14.2285V3.49716H14.2853C14.3848 3.15862 14.5517 2.90294 14.786 2.73011C15.0204 2.55492 15.2903 2.46733 15.5957 2.46733C15.6715 2.46733 15.7531 2.47206 15.8407 2.48153C15.9283 2.491 16.0053 2.50402 16.0716 2.5206V3.86293C16.0005 3.84162 15.9023 3.82268 15.7768 3.80611C15.6513 3.78954 15.5365 3.78125 15.4324 3.78125C15.2098 3.78125 15.0109 3.82978 14.8358 3.92685C14.6629 4.02154 14.5256 4.15412 14.4238 4.32457C14.3244 4.49503 14.2747 4.69152 14.2747 4.91406V8H12.7619ZM16.8537 8V2.54545H18.3665V8H16.8537ZM17.6136 1.84233C17.3887 1.84233 17.1958 1.76776 17.0348 1.61861C16.8762 1.46709 16.7969 1.28598 16.7969 1.07528C16.7969 0.86695 16.8762 0.68821 17.0348 0.539062C17.1958 0.387547 17.3887 0.311789 17.6136 0.311789C17.8385 0.311789 18.0303 0.387547 18.1889 0.539062C18.3499 0.68821 18.4304 0.86695 18.4304 1.07528C18.4304 1.28598 18.3499 1.46709 18.1889 1.61861C18.0303 1.76776 17.8385 1.84233 17.6136 1.84233ZM21.0911 4.84659V8H19.5783V2.54545H21.0201V3.50781H21.084C21.2047 3.19058 21.4071 2.93963 21.6912 2.75497C21.9753 2.56795 22.3198 2.47443 22.7246 2.47443C23.1034 2.47443 23.4337 2.55729 23.7154 2.72301C23.9971 2.88873 24.2161 3.12547 24.3723 3.43324C24.5286 3.73864 24.6067 4.10322 24.6067 4.52699V8H23.0939V4.79688C23.0963 4.46307 23.0111 4.20265 22.8382 4.01562C22.6654 3.82623 22.4275 3.73153 22.1245 3.73153C21.9209 3.73153 21.7409 3.77533 21.5847 3.86293C21.4308 3.95052 21.3101 4.07836 21.2225 4.24645C21.1373 4.41217 21.0935 4.61222 21.0911 4.84659ZM28.2564 10.1591C27.7663 10.1591 27.3461 10.0916 26.9957 9.95668C26.6477 9.8241 26.3707 9.64299 26.1648 9.41335C25.9588 9.18371 25.825 8.92566 25.7635 8.6392L27.1626 8.45099C27.2053 8.5599 27.2727 8.6617 27.3651 8.75639C27.4574 8.85109 27.5793 8.92685 27.7308 8.98366C27.8847 9.04285 28.0717 9.07244 28.2919 9.07244C28.621 9.07244 28.892 8.99195 29.1051 8.83097C29.3205 8.67235 29.4283 8.40601 29.4283 8.03196V7.03409H29.3643C29.2981 7.18561 29.1986 7.32884 29.0661 7.46378C28.9335 7.59872 28.763 7.70881 28.5547 7.79403C28.3464 7.87926 28.0978 7.92188 27.8089 7.92188C27.3994 7.92188 27.0265 7.82718 26.6903 7.63778C26.3565 7.44602 26.0902 7.15365 25.8913 6.76065C25.6948 6.36529 25.5966 5.86577 25.5966 5.26207C25.5966 4.64418 25.6972 4.12808 25.8984 3.71378C26.0997 3.29948 26.3672 2.98935 26.701 2.78338C27.0372 2.57741 27.4053 2.47443 27.8054 2.47443C28.1108 2.47443 28.3665 2.52652 28.5724 2.63068C28.7784 2.73248 28.9441 2.86032 29.0696 3.0142C29.1974 3.16572 29.2957 3.31487 29.3643 3.46165H29.4212V2.54545H30.9233V8.05327C30.9233 8.51728 30.8097 8.90554 30.5824 9.21804C30.3551 9.53054 30.0402 9.76491 29.6378 9.92116C29.2377 10.0798 28.7772 10.1591 28.2564 10.1591ZM28.2884 6.78551C28.5322 6.78551 28.7382 6.72514 28.9062 6.6044C29.0767 6.4813 29.2069 6.30611 29.2969 6.07884C29.3892 5.8492 29.4354 5.57457 29.4354 5.25497C29.4354 4.93537 29.3904 4.65838 29.3004 4.42401C29.2105 4.18726 29.0803 4.00379 28.9098 3.87358C28.7393 3.74337 28.5322 3.67827 28.2884 3.67827C28.0398 3.67827 27.8303 3.74574 27.6598 3.88068C27.4893 4.01326 27.3603 4.19792 27.2727 4.43466C27.1851 4.6714 27.1413 4.94484 27.1413 5.25497C27.1413 5.56984 27.1851 5.84209 27.2727 6.07173C27.3627 6.29901 27.4917 6.47538 27.6598 6.60085C27.8303 6.72396 28.0398 6.78551 28.2884 6.78551ZM33.7926 8L31.7116 0.727273H33.3913L34.5952 5.78054H34.6555L35.9837 0.727273H37.4219L38.7464 5.79119H38.8104L40.0142 0.727273H41.6939L39.6129 8H38.1143L36.7294 3.24503H36.6726L35.2912 8H33.7926ZM43.4579 8.10298C43.1099 8.10298 42.7998 8.04261 42.5275 7.92188C42.2553 7.79877 42.0398 7.61766 41.8812 7.37855C41.725 7.13707 41.6468 6.83641 41.6468 6.47656C41.6468 6.17353 41.7025 5.91903 41.8137 5.71307C41.925 5.5071 42.0765 5.34138 42.2683 5.21591C42.46 5.09044 42.6779 4.99574 42.9217 4.93182C43.1679 4.8679 43.426 4.82292 43.6958 4.79688C44.0131 4.76373 44.2688 4.73295 44.4629 4.70455C44.657 4.67377 44.7979 4.62879 44.8855 4.5696C44.9731 4.51042 45.0169 4.42282 45.0169 4.30682V4.28551C45.0169 4.06061 44.9458 3.8866 44.8038 3.76349C44.6641 3.64039 44.4653 3.57884 44.2072 3.57884C43.935 3.57884 43.7183 3.6392 43.5574 3.75994C43.3964 3.87831 43.2898 4.02746 43.2377 4.20739L41.8386 4.09375C41.9096 3.76231 42.0493 3.47585 42.2576 3.23438C42.466 2.99053 42.7347 2.8035 43.0637 2.6733C43.3952 2.54072 43.7787 2.47443 44.2143 2.47443C44.5173 2.47443 44.8074 2.50994 45.0843 2.58097C45.3637 2.65199 45.6111 2.76207 45.8265 2.91122C46.0443 3.06037 46.216 3.25213 46.3414 3.48651C46.4669 3.71851 46.5297 3.99669 46.5297 4.32102V8H45.095V7.24361H45.0524C44.9648 7.41406 44.8476 7.56439 44.7008 7.6946C44.554 7.82244 44.3777 7.92306 44.1717 7.99645C43.9657 8.06747 43.7278 8.10298 43.4579 8.10298ZM43.8912 7.05895C44.1137 7.05895 44.3102 7.01515 44.4806 6.92756C44.6511 6.83759 44.7849 6.71686 44.8819 6.56534C44.979 6.41383 45.0275 6.24219 45.0275 6.05043V5.47159C44.9802 5.50237 44.9151 5.53078 44.8322 5.55682C44.7517 5.58049 44.6606 5.60298 44.5588 5.62429C44.457 5.64323 44.3552 5.66098 44.2534 5.67756C44.1516 5.69176 44.0592 5.70478 43.9764 5.71662C43.7988 5.74266 43.6438 5.78409 43.5112 5.84091C43.3786 5.89773 43.2756 5.97467 43.2022 6.07173C43.1288 6.16643 43.0922 6.2848 43.0922 6.42685C43.0922 6.63281 43.1667 6.79025 43.3159 6.89915C43.4674 7.00568 43.6592 7.05895 43.8912 7.05895ZM52.2417 4.10085L50.8567 4.18608C50.833 4.06771 50.7821 3.96117 50.704 3.86648C50.6259 3.76941 50.5229 3.69247 50.3951 3.63565C50.2696 3.57647 50.1193 3.54688 49.9441 3.54688C49.7097 3.54688 49.512 3.59659 49.351 3.69602C49.19 3.79309 49.1096 3.9233 49.1096 4.08665C49.1096 4.21686 49.1616 4.32694 49.2658 4.4169C49.37 4.50687 49.5487 4.57907 49.802 4.63352L50.7892 4.83239C51.3195 4.94129 51.7149 5.11648 51.9753 5.35795C52.2357 5.59943 52.3659 5.91667 52.3659 6.30966C52.3659 6.66714 52.2606 6.98082 52.0499 7.25071C51.8416 7.5206 51.5551 7.7313 51.1905 7.88281C50.8283 8.03196 50.4105 8.10653 49.937 8.10653C49.2149 8.10653 48.6396 7.9562 48.2111 7.65554C47.785 7.35251 47.5352 6.94058 47.4618 6.41974L48.9498 6.34162C48.9947 6.56179 49.1036 6.72988 49.2765 6.84588C49.4493 6.95952 49.6706 7.01634 49.9405 7.01634C50.2057 7.01634 50.4187 6.96544 50.5797 6.86364C50.7431 6.75947 50.8259 6.62571 50.8283 6.46236C50.8259 6.32505 50.7679 6.21259 50.6543 6.125C50.5407 6.03504 50.3655 5.96638 50.1287 5.91903L49.1841 5.73082C48.6515 5.62429 48.2549 5.43963 47.9945 5.17685C47.7364 4.91406 47.6074 4.57907 47.6074 4.17188C47.6074 3.8215 47.7021 3.51965 47.8915 3.26634C48.0833 3.01302 48.352 2.81771 48.6976 2.6804C49.0456 2.54309 49.4528 2.47443 49.9192 2.47443C50.6081 2.47443 51.1503 2.62003 51.5456 2.91122C51.9434 3.20241 52.1754 3.59896 52.2417 4.10085ZM54.8313 4.84659V8H53.3185V0.727273H54.7887V3.50781H54.8526C54.9757 3.18584 55.1746 2.93371 55.4492 2.75142C55.7238 2.56676 56.0683 2.47443 56.4826 2.47443C56.8614 2.47443 57.1916 2.55729 57.4734 2.72301C57.7575 2.88636 57.9776 3.12192 58.1339 3.42969C58.2925 3.73509 58.3706 4.10085 58.3683 4.52699V8H56.8555V4.79688C56.8578 4.4607 56.7726 4.1991 56.5998 4.01207C56.4293 3.82505 56.1902 3.73153 55.8825 3.73153C55.6765 3.73153 55.4942 3.77533 55.3356 3.86293C55.1793 3.95052 55.0562 4.07836 54.9663 4.24645C54.8787 4.41217 54.8337 4.61222 54.8313 4.84659Z" fill="black"/>
</svg>
